HIERARCHY
ROOT Hips
{
	OFFSET 0.00000 0.00000 0.00000
	CHANNELS 6 Xposition Yposition Zposition Zrotation Yrotation Xrotation 
	JOINT LHipJoint
	{
		OFFSET 0 0 0
		CHANNELS 3 Zrotation Yrotation Xrotation
		JOINT LeftHip
		{
			OFFSET 1.88772 -1.62769 0.85636
			CHANNELS 3 Zrotation Yrotation Xrotation
			JOINT LeftKnee
			{
				OFFSET 2.39836 -6.58946 0.00000
				CHANNELS 3 Zrotation Yrotation Xrotation
				JOINT LeftAnkle
				{
					OFFSET 2.78523 -7.65237 0.00000
					CHANNELS 3 Zrotation Yrotation Xrotation
					JOINT LeftToe
					{
						OFFSET 0.19551 -0.53715 1.90694
						CHANNELS 3 Zrotation Yrotation Xrotation
						End Site
						{
							OFFSET 0.00000 -0.00000 0.99735
						}
					}
				}
			}
		}
	}
	JOINT RHipJoint
	{
		OFFSET 0 0 0
		CHANNELS 3 Zrotation Yrotation Xrotation
		JOINT RightHip
		{
			OFFSET -1.74282 -1.62769 0.85636
			CHANNELS 3 Zrotation Yrotation Xrotation
			JOINT RightKnee
			{
				OFFSET -2.36062 -6.48575 0.00000
				CHANNELS 3 Zrotation Yrotation Xrotation
				JOINT RightAnkle
				{
					OFFSET -2.76258 -7.59014 0.00000
					CHANNELS 3 Zrotation Yrotation Xrotation
					JOINT RightToe
					{
						OFFSET -0.19308 -0.53048 2.03952
						CHANNELS 3 Zrotation Yrotation Xrotation
						End Site
						{
							OFFSET -0.00000 -0.00000 1.06031
						}
					}
				}
			}
		}
	}
	JOINT lowerback
	{
		OFFSET 0 0 0
		CHANNELS 3 Zrotation Yrotation Xrotation
		JOINT Chest
		{
			OFFSET -0.08299 2.03160 -0.30721
			CHANNELS 3 Zrotation Yrotation Xrotation
			JOINT Chest2
			{
				OFFSET -0.01030 2.00603 0.13891
				CHANNELS 3 Zrotation Yrotation Xrotation
				JOINT lowerneck
				{
					OFFSET 0 0 0
					CHANNELS 3 Zrotation Yrotation Xrotation
					JOINT Neck
					{
						OFFSET 0.04282 1.69578 0.19991
						CHANNELS 3 Zrotation Yrotation Xrotation
						JOINT Head
						{
							OFFSET -0.08665 1.66622 -0.03785
							CHANNELS 3 Zrotation Yrotation Xrotation
							End Site
							{
								OFFSET -0.03699 1.83329 -0.04094
							}
						}
					}
				}
				JOINT LeftCollar
				{
					OFFSET 0 0 0
					CHANNELS 3 Zrotation Yrotation Xrotation
					JOINT LeftShoulder
					{
						OFFSET 3.04219 1.50803 -0.05347
CHANNELS 3 Zrotation Xrotation Yrotation
						JOINT LeftElbow
						{
OFFSET 0 -5.791990 0.000000
CHANNELS 3 Zrotation Xrotation Yrotation
							JOINT LeftWrist
							{
OFFSET 0 -3.499080 0.000000
CHANNELS 3 Zrotation Xrotation Yrotation
								JOINT lhand
								{
									OFFSET 0 0 0
CHANNELS 3 Zrotation Xrotation Yrotation
									JOINT LFingers
									{
OFFSET 0 -0.593860 0.000000
CHANNELS 3 Zrotation Xrotation Yrotation
										End Site
										{
OFFSET 0 -0.478790 0.000000
										}
									}
								}
								JOINT LThumb
								{
OFFSET 0 0.000000 0.000000
CHANNELS 3 Zrotation Xrotation Yrotation
									End Site
									{
OFFSET 0 -0.486100 0.486100
									}
								}
							}
						}
					}
				}
				JOINT RightCollar
				{
					OFFSET 0 0 0
					CHANNELS 3 Zrotation Yrotation Xrotation
					JOINT RightShoulder
					{
						OFFSET -3.30316 1.18853 0.11175
CHANNELS 3 Zrotation Xrotation Yrotation
						JOINT RightElbow
						{
OFFSET 0 -5.737990 0.000000
CHANNELS 3 Zrotation Xrotation Yrotation
							JOINT RightWrist
							{
OFFSET 0 -3.579160 -0.000000
CHANNELS 3 Zrotation Xrotation Yrotation
								JOINT rhand
								{
									OFFSET 0 0 0
CHANNELS 3 Zrotation Xrotation Yrotation
									JOINT RFingers
									{
OFFSET 0 -0.615580 0.000000
CHANNELS 3 Zrotation Xrotation Yrotation
										End Site
										{
OFFSET 0 -0.496290 0.000000
										}
									}
								}
								JOINT RThumb
								{
OFFSET 0 0.000000 0.000000
CHANNELS 3 Zrotation Xrotation Yrotation
									End Site
									{
OFFSET 0 -0.503870 0.503870
									}
								}
							}
						}
					}
				}
			}
		}
	}
}
MOTION
Frames: 7
Frame Time: 0.008333333333333333
11.236400 16.831000 -24.773500 1.281800 -7.798300 7.885300 0.000000 0.000000 0.000000 -17.009000 -13.515600 -37.171100 3.827100 11.926700 35.473300 0.078300 5.489900 -9.854000 0.156400 -2.547800 -7.022200 0.000000 0.000000 0.000000 20.588200 -6.147900 9.756900 -0.976700 -6.291300 17.631900 0.192800 -10.985100 -12.303600 -2.376900 9.610600 -27.724800 -5.753300 1.377500 4.000800 -1.970300 1.422100 -1.957300 1.070700 0.838500 -4.370700 6.223500 7.759300 -5.129000 -8.911800 10.668000 7.278700 -3.135300 5.085200 3.824000 -0.000000 -0.000000 0.000000 10.843700 13.927600 -34.923800 20.233400 -30.922500 5.650800 7.270800 -20.551500 19.894300 0.000000 0.000000 0.000000 -7.125000 0.000000 0.000000 -13.555300 10.365100 -11.222300 -0.000000 -0.000000 0.000000 -9.534400 14.986800 41.983600 -27.490800 -38.643200 -9.804100 -24.647300 1.029200 28.405400 0.000000 0.000000 0.000000 7.125000 0.000000 -0.000000 7.027000 60.597200 -2.679700
11.310233 16.865039 -24.419735 1.397029 -7.114164 7.470651 0.000000 0.000000 0.000000 -18.009567 -13.464331 -35.491559 3.863479 11.976454 35.648759 0.162738 4.490838 -10.600106 0.096083 -1.996077 -5.494983 0.000000 0.000000 0.000000 19.947139 -5.821176 6.449429 -1.985408 -8.818890 25.241700 0.366491 -11.779085 -9.647915 -1.493464 7.712780 -21.848624 -5.510424 1.332158 4.385104 -2.122756 1.342894 -1.907215 0.775975 0.792091 -4.520993 6.763077 7.326356 -6.103469 -9.220511 10.128553 8.725664 -3.297490 4.769152 4.426517 0.000000 0.000000 0.000000 11.260185 13.345965 -35.259041 19.307368 -29.798339 5.182997 5.771944 -18.813567 18.485777 0.000000 0.000000 0.000000 -7.125000 0.000000 0.000000 -14.546193 11.840917 -11.637240 0.000000 0.000000 0.000000 -9.065645 15.484600 41.307492 -26.816298 -38.003334 -9.385824 -25.617010 0.117483 27.567822 0.000000 0.000000 0.000000 7.125000 0.000000 0.000000 5.501734 59.965889 -2.013436
11.375778 16.894476 -24.100192 2.254679 -6.483700 7.630242 0.000000 0.000000 0.000000 -19.731358 -13.366570 -34.223916 3.756957 11.829738 35.132391 0.235764 3.430959 -11.095438 0.084233 -1.868459 -5.142417 0.000000 0.000000 0.000000 18.602370 -5.043109 2.139338 -3.329571 -11.209062 32.989689 0.504143 -12.662836 -7.082367 -0.789289 5.669723 -15.829540 -6.231854 1.153924 4.559364 -2.277287 1.019685 -2.248381 1.034770 0.666678 -4.974583 7.028575 7.136012 -6.196472 -9.353135 9.923688 9.612069 -3.382509 4.653246 4.714632 0.000000 0.000000 0.000000 11.401386 13.380099 -35.584886 18.406394 -28.674354 4.742597 7.318164 -17.001365 19.034258 0.000000 0.000000 0.000000 -7.125000 0.000000 0.000000 -13.539473 11.200936 -10.969108 0.000000 0.000000 0.000000 -9.352363 16.173244 41.296093 -26.113237 -37.320235 -8.956246 -24.829692 0.196904 27.757996 0.000000 0.000000 0.000000 7.125000 0.000000 0.000000 6.490224 59.972756 -2.377385
11.419024 16.927393 -23.765953 2.963980 -6.448343 7.607453 0.000000 0.000000 0.000000 -20.992615 -13.103500 -32.372833 3.572220 11.568235 34.221239 0.323772 2.606975 -12.029223 0.009272 0.559479 1.537511 0.000000 0.000000 0.000000 17.456094 -3.832377 -1.817691 -4.942314 -13.308730 40.553046 0.555269 -13.072535 -4.887500 -0.409956 4.106136 -11.376142 -7.025841 1.179425 4.465773 -2.474630 0.996148 -2.311448 1.273014 0.678870 -5.002513 7.056392 7.144121 -6.191681 -9.167208 9.918472 9.723527 -3.329649 4.659841 4.739138 0.000000 0.000000 0.000000 11.891075 13.006626 -35.132636 18.528423 -28.828348 4.801397 3.918051 -16.848504 16.230039 0.000000 0.000000 0.000000 -7.125000 0.000000 0.000000 -15.840310 14.130316 -11.968128 0.000000 0.000000 0.000000 -9.246304 16.192143 41.416414 -25.348796 -36.558221 -8.496920 -24.550701 0.371725 27.821608 0.000000 0.000000 0.000000 7.125000 0.000000 0.000000 6.838546 59.971149 -2.505412
11.459981 16.969351 -23.452970 2.938763 -6.337114 7.363215 0.000000 0.000000 0.000000 -21.792086 -11.856423 -30.914328 3.474942 11.426806 33.733222 0.382537 1.768033 -12.463177 0.011537 -0.684420 -1.880875 0.000000 0.000000 0.000000 17.219810 -2.638558 -5.408785 -6.619112 -15.001214 47.416137 0.528741 -12.829586 -3.294117 -0.275120 3.372492 -9.317563 -7.160415 1.213931 4.657722 -2.320461 1.029833 -2.183211 1.503642 0.699605 -4.985704 7.165665 6.902811 -6.568618 -9.650925 9.634561 9.932705 -3.504500 4.484768 4.872453 0.000000 0.000000 0.000000 11.918455 12.576904 -34.226236 18.318751 -28.563343 4.700677 3.710136 -15.807225 17.236339 0.000000 0.000000 0.000000 -7.125000 0.000000 0.000000 -15.920764 13.172410 -12.371192 0.000000 0.000000 0.000000 -9.584565 15.984598 41.556224 -24.554960 -35.745630 -8.028454 -23.072249 0.873534 27.898121 0.000000 0.000000 0.000000 7.125000 0.000000 0.000000 8.542674 59.695481 -3.078448
11.487926 17.017008 -23.143049 3.318777 -6.072910 7.098224 0.000000 0.000000 0.000000 -22.855521 -11.226446 -29.265280 3.367988 11.268060 33.189356 0.432958 1.351699 -12.994155 0.040739 -1.300836 -3.577035 0.000000 0.000000 0.000000 16.651872 -1.525410 -8.882473 -8.340922 -16.358894 53.772886 0.421502 -11.430505 -3.557327 -0.243949 3.174850 -8.766144 -7.483836 1.264987 5.086439 -2.464570 1.020073 -2.273217 1.523034 0.714000 -5.330739 7.162996 6.882018 -6.212409 -9.317976 9.593032 10.033203 -3.416024 4.491103 4.822225 0.000000 0.000000 0.000000 12.859587 12.854415 -35.016157 19.027672 -29.453010 5.044445 4.716478 -17.443431 17.424900 0.000000 0.000000 0.000000 -7.125000 0.000000 0.000000 -15.262492 12.936041 -11.898042 0.000000 0.000000 0.000000 -9.411008 16.463220 41.771101 -24.216229 -35.391903 -7.831500 -23.394509 1.454181 27.543955 0.000000 0.000000 0.000000 7.125000 0.000000 0.000000 7.999993 59.409037 -2.827461
11.526819 17.060582 -22.820955 3.814202 -5.922599 6.997460 0.000000 0.000000 0.000000 -24.001839 -10.863743 -27.424056 3.182185 10.984280 32.226849 0.502736 1.012457 -13.798524 0.035338 -1.212510 -3.333699 0.000000 0.000000 0.000000 15.908373 -0.306623 -12.594964 -9.986136 -17.401116 59.440739 0.297087 -9.679668 -2.317284 -0.637748 5.087496 -14.163340 -7.932100 1.215663 4.793770 -2.539974 0.967485 -1.994822 1.709356 0.681547 -4.875102 6.622907 7.139582 -6.001792 -8.593816 9.884111 9.529466 -3.096408 4.666187 4.594242 0.000000 0.000000 0.000000 13.120838 11.620515 -34.091128 18.804887 -29.175510 4.935362 5.401796 -17.558227 17.046965 0.000000 0.000000 0.000000 -7.125000 0.000000 0.000000 -14.834997 13.262249 -11.434037 0.000000 0.000000 0.000000 -9.363712 16.278357 42.060329 -24.180546 -35.354610 -7.810777 -20.670148 0.472678 26.381698 0.000000 0.000000 0.000000 7.125000 0.000000 0.000000 10.385468 57.607297 -3.227588
